<?xml version="1.0" encoding="UTF-8"?> <svg xmlns="http://www.w3.org/2000/svg" viewBox="0 0 19.5 65"><defs><style>.a{fill:#575756;}</style></defs><path class="a" d="M1.41,64.68a.27.27,0,0,1-.26-.28v-.35L7.46,58.1H1.56a.28.28,0,0,1-.27-.27V56.5a.28.28,0,0,1,.27-.27h9.62a.27.27,0,0,1,.25.27v.35l-6.55,6H11a.28.28,0,0,1,.27.27v1.3a.28.28,0,0,1-.27.28Z"></path><path class="a" d="M1.15,49.22A5.14,5.14,0,1,1,6.3,54.34,5.14,5.14,0,0,1,1.15,49.22Zm8.43,0A3.29,3.29,0,1,0,6.3,52.49,3.3,3.3,0,0,0,9.58,49.22Z"></path><path class="a" d="M1.66,43.57a.25.25,0,0,1-.37-.24V41.87a.26.26,0,0,1,.16-.24l6.14-2.75v-.1L1.45,36a.26.26,0,0,1-.16-.24V34.34a.25.25,0,0,1,.37-.24l9.62,4.43a.25.25,0,0,1,.15.24v.14a.28.28,0,0,1-.15.25Z"></path><path class="a" d="M10.92,34.81,1.3,30.37a.26.26,0,0,1-.15-.24V30a.24.24,0,0,1,.15-.24l9.62-4.4a.25.25,0,0,1,.37.24v1.25a.4.4,0,0,1-.29.41l-1.54.7v4.27l1.54.7a.43.43,0,0,1,.29.41v1.25A.25.25,0,0,1,10.92,34.81Zm-3-6.17L4.73,30.07v0l3.15,1.4Z"></path><path class="a" d="M1.41,24a.27.27,0,0,1-.26-.27v-.36l6.31-5.94v0H1.56a.27.27,0,0,1-.27-.27V15.86a.28.28,0,0,1,.27-.27h9.62a.27.27,0,0,1,.25.27v.35l-6.55,6H11a.28.28,0,0,1,.27.28v1.3A.28.28,0,0,1,11,24Z"></path><path class="a" d="M1.56,13a.27.27,0,0,1-.27-.25V9.35a5,5,0,1,1,10,0v3.39A.27.27,0,0,1,11,13Zm8-3.47A3.15,3.15,0,0,0,6.28,6.31,3.15,3.15,0,0,0,3,9.52v1.63H9.55Z"></path><path class="a" d="M1.56,2.45a.28.28,0,0,1-.27-.27V.85A.28.28,0,0,1,1.56.58H11a.28.28,0,0,1,.27.27V2.18a.28.28,0,0,1-.27.27Z"></path><path class="a" d="M14.09,61.82a2.67,2.67,0,0,1,.7-1.82A.15.15,0,0,1,15,60l.21.2c.07.06.06.12,0,.2a2.26,2.26,0,0,0-.57,1.43,2.16,2.16,0,0,0,4.32,0,2.18,2.18,0,0,0-.56-1.43c-.06-.08-.05-.14,0-.18l.2-.23a.14.14,0,0,1,.2,0,2.57,2.57,0,0,1,.73,1.83,2.71,2.71,0,1,1-5.41,0Z"></path><path class="a" d="M14.31,57.71a.15.15,0,0,1-.14-.15v-.29a.14.14,0,0,1,.14-.14H16.5V54.08H14.31a.14.14,0,0,1-.14-.14v-.3a.15.15,0,0,1,.14-.14h5a.15.15,0,0,1,.15.14v.3a.15.15,0,0,1-.15.14H17v3.05h2.27a.15.15,0,0,1,.15.14v.29a.15.15,0,0,1-.15.15Z"></path><path class="a" d="M14.31,50.84a.14.14,0,0,1-.14-.14v-3a.14.14,0,0,1,.14-.14h.22a.14.14,0,0,1,.14.14v2.52H16.5V48.11a.15.15,0,0,1,.15-.14h.21a.14.14,0,0,1,.15.14v2.15h1.91V47.74a.15.15,0,0,1,.15-.14h.21a.15.15,0,0,1,.15.14v3a.15.15,0,0,1-.15.14Z"></path><path class="a" d="M14.2,44.68a.16.16,0,0,1-.11-.14v-.12a.15.15,0,0,1,.09-.13l4.13-1.48v0L14.18,41.3a.13.13,0,0,1-.09-.12v-.12a.16.16,0,0,1,.11-.14l5.05-1c.1,0,.18,0,.18.14v.3a.15.15,0,0,1-.11.13l-3.87.67v0l4,1.38a.18.18,0,0,1,.08.13v.14a.15.15,0,0,1-.08.12l-4,1.4v0l3.87.65a.16.16,0,0,1,.11.14v.3a.13.13,0,0,1-.18.13Z"></path><path class="a" d="M14.31,37.67a.15.15,0,0,1-.14-.14v-.31a.15.15,0,0,1,.14-.14h5a.15.15,0,0,1,.15.14v.31a.15.15,0,0,1-.15.14Z"></path><path class="a" d="M18.64,34.76l-.15-.11c-.09-.08-.15-.16-.06-.26A2.16,2.16,0,0,0,19,33.12a.91.91,0,0,0-.83-1c-.52,0-.82.45-1.19,1.31s-.69,1.33-1.55,1.33a1.43,1.43,0,0,1-1.34-1.6,2.44,2.44,0,0,1,.39-1.29.16.16,0,0,1,.25,0l.15.09a.17.17,0,0,1,.06.26,2.12,2.12,0,0,0-.34,1c0,.8.51,1,.82,1,.51,0,.8-.38,1.06-1,.41-1,.8-1.67,1.67-1.67a1.49,1.49,0,0,1,1.35,1.62,2.46,2.46,0,0,1-.61,1.59A.16.16,0,0,1,18.64,34.76Z"></path><path class="a" d="M14.67,28.55v1.31a.14.14,0,0,1-.14.14h-.22a.14.14,0,0,1-.14-.14V26.67a.14.14,0,0,1,.14-.14h.22a.14.14,0,0,1,.14.14V28h4.61a.15.15,0,0,1,.15.14v.29a.15.15,0,0,1-.15.14Z"></path><path class="a" d="M14.31,24.58a.14.14,0,0,1-.14-.14v-2a1.62,1.62,0,0,1,1.6-1.64A1.67,1.67,0,0,1,17.3,22l1.91-1a.14.14,0,0,1,.22.12v.39a.15.15,0,0,1-.07.12l-2,1V24h1.91a.15.15,0,0,1,.15.14v.3a.15.15,0,0,1-.15.14Zm2.56-2a1.08,1.08,0,1,0-2.15,0V24h2.15Z"></path><path class="a" d="M16.89,17.43l-2.5,1.81a.14.14,0,0,1-.22-.12v-.36a.19.19,0,0,1,.07-.12l2.09-1.51-2.09-1.52a.16.16,0,0,1-.07-.12v-.35a.14.14,0,0,1,.22-.12l2.5,1.83h2.39a.15.15,0,0,1,.15.14v.29a.15.15,0,0,1-.15.15Z"></path><path class="a" d="M19.23,11,14.18,8.76a.13.13,0,0,1-.09-.13V8.56a.13.13,0,0,1,.09-.13l5.05-2.27a.14.14,0,0,1,.2.13v.3a.15.15,0,0,1-.09.13l-1.24.55V9.94l1.24.55a.14.14,0,0,1,.09.13v.3A.13.13,0,0,1,19.23,11ZM17.64,7.48c-.82.36-1.65.72-2.46,1.09v.06l2.46,1.1Z"></path><path class="a" d="M14.31,4.22a.15.15,0,0,1-.14-.15V2.43a1.38,1.38,0,0,1,2.58-.81A1.35,1.35,0,0,1,18,.72a1.49,1.49,0,0,1,1.45,1.64V4.07a.15.15,0,0,1-.15.15ZM18.92,2.3a.93.93,0,0,0-1-.95A1,1,0,0,0,17,2.43V3.67h1.88Zm-2.39.13a.87.87,0,0,0-.94-.9.83.83,0,0,0-.9.9V3.65h1.84Z"></path></svg> 